<?xml version="1.0" encoding="utf-8"?>
<!-- Generator: Adobe Illustrator 15.1.0, SVG Export Plug-In . SVG Version: 6.00 Build 0)  -->
<!DOCTYPE svg PUBLIC "-//W3C//DTD SVG 1.1//EN" "http://www.w3.org/Graphics/SVG/1.1/DTD/svg11.dtd">
<svg version="1.1" id="Layer_1" xmlns="http://www.w3.org/2000/svg" xmlns:xlink="http://www.w3.org/1999/xlink" x="0px" y="0px"
	 width="200px" height="200px" viewBox="-0.25 0 200 200" enable-background="new -0.25 0 200 200" xml:space="preserve">
<g id="solid" xmlns:svg="http://www.w3.org/2000/svg" xmlns:sodipodi="http://sodipodi.sourceforge.net/DTD/sodipodi-0.dtd" xmlns:rdf="http://www.w3.org/1999/02/22-rdf-syntax-ns#" xmlns:dc="http://purl.org/dc/elements/1.1/" xmlns:cc="http://creativecommons.org/ns#" xmlns:inkscape="http://www.inkscape.org/namespaces/inkscape" inkscape:version="0.48.1 r9760" sodipodi:docname="twitter_bootstrap_logo.svg">
	<path id="bg" fill="#563D7C" d="M191,159.999C191,176.5,177.5,190,160.999,190H41c-16.5,0-30-13.5-30-30.001V40
		c0-16.5,13.5-30,30-30h119.999C177.5,10,191,23.5,191,40V159.999z"/>
	<g id="B" enable-background="new    ">
		<path fill="#FFFFFF" d="M59.911,49.118h51.03c9.412,0,16.971,2.146,22.646,6.471c5.676,4.323,8.529,10.823,8.529,19.559
			c0,5.294-1.294,9.824-3.882,13.588c-2.589,3.764-6.294,6.706-11.118,8.765v0.293c6.471,1.382,11.382,4.442,14.706,9.177
			c3.324,4.765,5,10.706,5,17.882c0,4.118-0.735,7.971-2.206,11.53c-1.47,3.588-3.764,6.677-6.911,9.264
			c-3.147,2.589-7.146,4.648-12.059,6.178s-10.736,2.294-17.5,2.294H59.911V49.118L59.911,49.118z M78.294,93.088h30
			c4.41,0,8.088-1.236,11.028-3.765c2.941-2.529,4.412-6.117,4.412-10.823c0-5.294-1.323-9.029-3.971-11.176
			c-2.647-2.147-6.471-3.235-11.47-3.235h-30V93.088L78.294,93.088z M78.294,139.117h32.5c5.588,0,9.94-1.44,12.999-4.353
			c3.088-2.882,4.647-7,4.647-12.295c0-5.204-1.529-9.176-4.647-11.999c-3.117-2.825-7.411-4.176-12.999-4.176h-32.5V139.117z"/>
	</g>
</g>
</svg>
